# xmcd
#
# Track frame offsets: 
#        150
#        1143
#        24185
#        43802
#        55716
#        70535
#        75736
#        76628
#        81052
#        86879
#        107019
#        123673
#        126469
#        145011
#        164436
#        172864
#        209949
#        226608
#        227518
#        230693
#        232488
#        259013
#        287849
#
# Disc length: 3925 seconds
#
# Revision: 0
# Processed by: cddbd v1.5.2PL0 Copyright (c) Steve Scherf et al.
# Submitted via: ExactAudioCopy v0.95b4
#
DISCID=2f0f5317
DTITLE=The Beatles  - AB  Road - Complete Purple Chick Set v1.1 Jan.27
DTITLE=Various Artist - D6  FLAC
DYEAR=1900
DGENRE=
TTITLE0=Roll announcement
TTITLE1=Get Back 27.73
TTITLE2=Get Back 27.74
TTITLE3=Get Back-Water Water 27.75
TTITLE4=Take These Chains From My Heart 27.76
TTITLE5=I've Got A Feeling 27.77
TTITLE6=Roll announcement
TTITLE7=I've Got A Feeling 27.78
TTITLE8=I've Got A Feeling 27.79
TTITLE9=I've Got A Feeling 27.80
TTITLE10=I've Got A Feeling 27.81
TTITLE11=I've Got A Feeling 27.82
TTITLE12=You Won't Get Me This Way-The Walk 27.83
TTITLE13=I've Got A Feeling 27.84
TTITLE14=I've Got A Feeling 27.85
TTITLE15=I've Got A Feeling 27.84P
TTITLE16=Get Back 27.53P
TTITLE17=Roll announcement
TTITLE18=Dialogue
TTITLE19=Dialogue
TTITLE20=Get Back 27.63P
TTITLE21=Get Back 27.65P
TTITLE22=Get Back 27.71P
EXTD=
EXTT0=
EXTT1=
EXTT2=
EXTT3=
EXTT4=
EXTT5=
EXTT6=
EXTT7=
EXTT8=
EXTT9=
EXTT10=
EXTT11=
EXTT12=
EXTT13=
EXTT14=
EXTT15=
EXTT16=
EXTT17=
EXTT18=
EXTT19=
EXTT20=
EXTT21=
EXTT22=
PLAYORDER=
